STARTFONT 2.1
FONT -FontForge-Merriweather-Book-R-Normal--20-150-96-96-P-120-ISO10646-1
SIZE 15 96 96
FONTBOUNDINGBOX 20 24 0 -5
COMMENT "Generated by fontforge, http://fontforge.sourceforge.net"
COMMENT "Copyright 2016 The Merriweather Project Authors (https://github.com/EbenSorkin/Merriweather), with Reserved Font Name "Merriweather"."
STARTPROPERTIES 39
FOUNDRY "FontForge"
FAMILY_NAME "Merriweather"
WEIGHT_NAME "Book"
SLANT "R"
SETWIDTH_NAME "Normal"
ADD_STYLE_NAME ""
PIXEL_SIZE 20
POINT_SIZE 150
RESOLUTION_X 96
RESOLUTION_Y 96
SPACING "P"
AVERAGE_WIDTH 120
CHARSET_REGISTRY "ISO10646"
CHARSET_ENCODING "1"
FONTNAME_REGISTRY ""
CHARSET_COLLECTIONS "ISO10646-1"
FONT_NAME "Merriweather-Regular"
FACE_NAME "Merriweather Regular"
COPYRIGHT "Copyright 2016 The Merriweather Project Authors (https://github.com/EbenSorkin/Merriweather), with Reserved Font Name "Merriweather"."
FONT_VERSION "2.002"
FONT_ASCENT 16
FONT_DESCENT 4
UNDERLINE_POSITION -2
UNDERLINE_THICKNESS 1
X_HEIGHT 11
CAP_HEIGHT 15
RAW_ASCENT 800
RAW_DESCENT 200
NORM_SPACE 5
RELATIVE_WEIGHT 40
RELATIVE_SETWIDTH 50
SUPERSCRIPT_X 0
SUPERSCRIPT_Y 7
SUPERSCRIPT_SIZE 12
SUBSCRIPT_X 0
SUBSCRIPT_Y 1
SUBSCRIPT_SIZE 12
AVG_LOWERCASE_WIDTH 112
AVG_UPPERCASE_WIDTH 139
ENDPROPERTIES
CHARS 95
STARTCHAR space
ENCODING 32
SWIDTH 237 0
DWIDTH 5 0
BBX 1 1 0 0
BITMAP
00
ENDCHAR
STARTCHAR exclam
ENCODING 33
SWIDTH 354 0
DWIDTH 7 0
BBX 3 19 2 0
BITMAP
E0
E0
E0
E0
C0
C0
C0
40
40
40
40
40
40
40
00
00
60
E0
E0
ENDCHAR
STARTCHAR quotedbl
ENCODING 34
SWIDTH 612 0
DWIDTH 12 0
BBX 8 8 2 9
BITMAP
E3
63
43
43
43
42
42
42
ENDCHAR
STARTCHAR numbersign
ENCODING 35
SWIDTH 744 0
DWIDTH 15 0
BBX 12 16 2 0
BITMAP
18C0
1080
1080
1080
FFF0
3180
3180
3180
3180
3180
FFE0
2100
2100
2100
2100
6300
ENDCHAR
STARTCHAR dollar
ENCODING 36
SWIDTH 659 0
DWIDTH 13 0
BBX 10 21 2 -2
BITMAP
0800
0800
0800
3F00
6380
C180
C180
C000
E000
7000
3C00
0F00
0780
0180
81C0
8180
C180
E380
7E00
0800
0800
ENDCHAR
STARTCHAR percent
ENCODING 37
SWIDTH 1037 0
DWIDTH 21 0
BBX 19 16 1 0
BITMAP
3C0800
661800
C61000
C23000
C32000
C22000
C66000
664780
3CCCC0
00C840
009860
019860
011860
0318C0
030CC0
060780
ENDCHAR
STARTCHAR ampersand
ENCODING 38
SWIDTH 756 0
DWIDTH 15 0
BBX 14 16 1 0
BITMAP
1F00
3180
3180
6180
3180
3300
3E00
1C7C
3C10
6E10
C710
C3B0
C1E0
60E0
71F0
1F38
ENDCHAR
STARTCHAR quotesingle
ENCODING 39
SWIDTH 353 0
DWIDTH 7 0
BBX 3 8 2 9
BITMAP
E0
60
40
40
40
40
40
40
ENDCHAR
STARTCHAR parenleft
ENCODING 40
SWIDTH 430 0
DWIDTH 9 0
BBX 6 21 1 -4
BITMAP
04
0C
18
30
30
60
60
60
C0
C0
C0
C0
C0
60
60
60
30
30
18
0C
04
ENDCHAR
STARTCHAR parenright
ENCODING 41
SWIDTH 430 0
DWIDTH 9 0
BBX 6 21 1 -4
BITMAP
40
E0
30
30
18
18
0C
0C
0C
0C
0C
0C
0C
0C
0C
18
18
10
30
60
C0
ENDCHAR
STARTCHAR asterisk
ENCODING 42
SWIDTH 643 0
DWIDTH 13 0
BBX 9 11 2 6
BITMAP
1800
0800
8880
CB80
7F00
0800
7F00
EB80
8880
0800
0800
ENDCHAR
STARTCHAR plus
ENCODING 43
SWIDTH 661 0
DWIDTH 13 0
BBX 9 9 2 3
BITMAP
0800
0800
0800
0800
FF80
FF80
0800
0800
0800
ENDCHAR
STARTCHAR comma
ENCODING 44
SWIDTH 335 0
DWIDTH 7 0
BBX 3 8 2 -5
BITMAP
C0
E0
60
60
60
40
C0
80
ENDCHAR
STARTCHAR hyphen
ENCODING 45
SWIDTH 628 0
DWIDTH 13 0
BBX 8 1 2 6
BITMAP
FF
ENDCHAR
STARTCHAR period
ENCODING 46
SWIDTH 265 0
DWIDTH 5 0
BBX 3 3 1 0
BITMAP
60
E0
60
ENDCHAR
STARTCHAR slash
ENCODING 47
SWIDTH 431 0
DWIDTH 9 0
BBX 7 20 1 -4
BITMAP
06
04
04
0C
0C
08
18
18
18
10
30
30
20
60
60
60
40
C0
C0
C0
ENDCHAR
STARTCHAR zero
ENCODING 48
SWIDTH 643 0
DWIDTH 13 0
BBX 11 14 1 0
BITMAP
0F00
3180
60C0
60C0
60C0
C0E0
C0E0
C0E0
E0E0
E0C0
60C0
6080
3180
1E00
ENDCHAR
STARTCHAR one
ENCODING 49
SWIDTH 440 0
DWIDTH 9 0
BBX 7 13 1 0
BITMAP
38
F8
98
18
18
18
18
18
18
18
18
18
FE
ENDCHAR
STARTCHAR two
ENCODING 50
SWIDTH 598 0
DWIDTH 12 0
BBX 10 13 1 0
BITMAP
3E00
6300
8380
0180
0180
0380
0300
0600
0E00
1C40
3040
63C0
FFC0
ENDCHAR
STARTCHAR three
ENCODING 51
SWIDTH 560 0
DWIDTH 11 0
BBX 9 16 1 -3
BITMAP
3E00
C700
0300
0380
0300
0600
1C00
3E00
2780
0380
0180
0180
0180
0300
0E00
FC00
ENDCHAR
STARTCHAR four
ENCODING 52
SWIDTH 644 0
DWIDTH 13 0
BBX 12 18 1 -3
BITMAP
0400
0700
0600
0E00
0C00
0C00
1800
1800
3000
3000
6180
6180
C180
C180
FFF0
0180
0180
0180
ENDCHAR
STARTCHAR five
ENCODING 53
SWIDTH 594 0
DWIDTH 12 0
BBX 9 16 2 -3
BITMAP
7F00
7F00
C000
C000
C000
C000
BE00
C700
0300
0380
0380
0300
0300
0600
1C00
F800
ENDCHAR
STARTCHAR six
ENCODING 54
SWIDTH 664 0
DWIDTH 13 0
BBX 10 17 2 0
BITMAP
0300
0E00
1800
3000
6000
6000
DF00
E380
C180
C1C0
C0C0
C0C0
C0C0
C180
E180
7300
1E00
ENDCHAR
STARTCHAR seven
ENCODING 55
SWIDTH 588 0
DWIDTH 12 0
BBX 10 16 1 -3
BITMAP
FFC0
C0C0
C180
8180
0100
0300
0300
0600
0600
0600
0C00
0C00
1C00
1800
3800
0800
ENDCHAR
STARTCHAR eight
ENCODING 56
SWIDTH 633 0
DWIDTH 13 0
BBX 10 16 1 0
BITMAP
1F00
3180
60C0
60C0
60C0
7080
3900
1E00
3F80
63C0
40C0
C0C0
C0C0
60C0
7180
1F00
ENDCHAR
STARTCHAR nine
ENCODING 57
SWIDTH 660 0
DWIDTH 13 0
BBX 11 16 1 -3
BITMAP
1F00
3180
60C0
60C0
E0E0
E0E0
60E0
60E0
71E0
3EC0
00C0
0180
0180
0300
0E00
3800
ENDCHAR
STARTCHAR colon
ENCODING 58
SWIDTH 344 0
DWIDTH 7 0
BBX 3 12 2 0
BITMAP
E0
E0
C0
00
00
00
00
00
00
40
E0
C0
ENDCHAR
STARTCHAR semicolon
ENCODING 59
SWIDTH 344 0
DWIDTH 7 0
BBX 3 16 2 -4
BITMAP
E0
E0
C0
00
00
00
00
00
40
E0
E0
60
60
60
40
80
ENDCHAR
STARTCHAR less
ENCODING 60
SWIDTH 669 0
DWIDTH 13 0
BBX 9 11 2 1
BITMAP
0080
0180
0780
1E00
7800
C000
E000
3800
1E00
0780
0180
ENDCHAR
STARTCHAR equal
ENCODING 61
SWIDTH 653 0
DWIDTH 13 0
BBX 9 7 2 3
BITMAP
FF80
0000
0000
0000
0000
0000
FF80
ENDCHAR
STARTCHAR greater
ENCODING 62
SWIDTH 669 0
DWIDTH 13 0
BBX 10 11 2 1
BITMAP
8000
C000
7000
1C00
0700
01C0
01C0
0700
1C00
7000
C000
ENDCHAR
STARTCHAR question
ENCODING 63
SWIDTH 487 0
DWIDTH 10 0
BBX 8 19 1 0
BITMAP
F8
8E
06
03
03
03
03
06
1C
38
30
30
30
30
00
00
30
70
30
ENDCHAR
STARTCHAR at
ENCODING 64
SWIDTH 1078 0
DWIDTH 22 0
BBX 18 21 2 -5
BITMAP
01F800
070E00
0C0300
100180
300180
61E880
433880
4618C0
C418C0
CC3080
8C3080
8C3080
8C5100
8C7100
C6B200
C31C00
400000
600000
300000
1C3000
07C000
ENDCHAR
STARTCHAR A
ENCODING 65
SWIDTH 692 0
DWIDTH 14 0
BBX 14 16 0 0
BITMAP
0300
0700
0580
0580
0D80
08C0
08C0
18C0
1860
1060
3FE0
3030
2030
6030
6038
F07C
ENDCHAR
STARTCHAR B
ENCODING 66
SWIDTH 685 0
DWIDTH 14 0
BBX 12 16 1 0
BITMAP
FF80
70C0
3060
3060
3060
3040
30C0
3F80
30E0
3070
3030
3030
3070
3060
30E0
FF80
ENDCHAR
STARTCHAR C
ENCODING 67
SWIDTH 653 0
DWIDTH 13 0
BBX 11 16 1 0
BITMAP
0FC0
3860
7060
6020
E000
C000
C000
C000
C000
C000
C000
E000
6020
7060
3860
0FC0
ENDCHAR
STARTCHAR D
ENCODING 68
SWIDTH 758 0
DWIDTH 15 0
BBX 14 16 1 0
BITMAP
FF80
F0E0
3070
3038
3018
3018
3018
301C
3018
3018
3018
3018
3030
3070
30E0
FF80
ENDCHAR
STARTCHAR E
ENCODING 69
SWIDTH 651 0
DWIDTH 13 0
BBX 12 16 1 0
BITMAP
FFC0
3040
3040
3040
3000
3000
3100
3F00
3100
3100
3100
3000
3030
3020
3060
FFE0
ENDCHAR
STARTCHAR F
ENCODING 70
SWIDTH 619 0
DWIDTH 12 0
BBX 11 16 1 0
BITMAP
FFE0
3060
3060
3060
3000
3000
3080
3180
3F80
3180
3080
3000
3000
3000
3000
FE00
ENDCHAR
STARTCHAR G
ENCODING 71
SWIDTH 740 0
DWIDTH 15 0
BBX 13 16 1 0
BITMAP
07E0
1C70
3030
6030
E000
E000
C000
C000
C0F8
C030
E030
E030
6030
7030
3870
0FC0
ENDCHAR
STARTCHAR H
ENCODING 72
SWIDTH 828 0
DWIDTH 17 0
BBX 15 16 1 0
BITMAP
F87E
3018
3018
3018
3018
3018
3018
3FF8
3018
3018
3018
3018
3018
3018
3018
FC7E
ENDCHAR
STARTCHAR I
ENCODING 73
SWIDTH 403 0
DWIDTH 8 0
BBX 6 16 1 0
BITMAP
FC
30
30
30
30
30
30
30
30
30
30
30
30
30
30
FC
ENDCHAR
STARTCHAR J
ENCODING 74
SWIDTH 381 0
DWIDTH 8 0
BBX 7 19 0 -3
BITMAP
7E
18
18
18
18
18
18
18
18
18
18
18
18
18
18
18
30
70
E0
ENDCHAR
STARTCHAR K
ENCODING 75
SWIDTH 726 0
DWIDTH 15 0
BBX 14 16 1 0
BITMAP
F8F8
3020
3040
30C0
3180
3300
3200
3700
3F80
3980
31C0
30C0
30E0
3070
3070
FC3C
ENDCHAR
STARTCHAR L
ENCODING 76
SWIDTH 634 0
DWIDTH 13 0
BBX 11 16 1 0
BITMAP
FC00
3000
3000
3000
3000
3000
3000
3000
3000
3000
3000
3020
3020
3060
3060
FFE0
ENDCHAR
STARTCHAR M
ENCODING 77
SWIDTH 990 0
DWIDTH 20 0
BBX 20 16 0 0
BITMAP
7E07E0
160700
160500
160D80
130980
130980
131980
139980
119180
319180
31B180
30E1C0
30E0C0
20E0C0
2040C0
F803F0
ENDCHAR
STARTCHAR N
ENCODING 78
SWIDTH 799 0
DWIDTH 16 0
BBX 14 16 1 0
BITMAP
F03C
3818
3818
3C18
2E18
2618
2718
2318
2198
21D8
20D8
20F8
2078
2038
2038
F818
ENDCHAR
STARTCHAR O
ENCODING 79
SWIDTH 722 0
DWIDTH 14 0
BBX 13 16 1 0
BITMAP
0F80
38E0
6060
6030
C030
C038
C038
C038
C038
C038
C030
C030
6030
6060
38C0
1F00
ENDCHAR
STARTCHAR P
ENCODING 80
SWIDTH 649 0
DWIDTH 13 0
BBX 11 16 1 0
BITMAP
FF80
70E0
3060
3060
3060
3060
3060
3060
30C0
3F80
3000
3000
3000
3000
3000
FE00
ENDCHAR
STARTCHAR Q
ENCODING 81
SWIDTH 727 0
DWIDTH 15 0
BBX 17 20 1 -4
BITMAP
0F8000
38E000
706000
603000
E03000
C03800
C03800
C03800
C03800
C03800
C03000
E03000
603000
706000
38C000
1FC000
007000
003800
001C00
000780
ENDCHAR
STARTCHAR R
ENCODING 82
SWIDTH 704 0
DWIDTH 14 0
BBX 13 16 1 0
BITMAP
FF80
71C0
30E0
3060
3060
3060
30E0
30C0
3F80
3180
31C0
30C0
30E0
3060
3070
FC38
ENDCHAR
STARTCHAR S
ENCODING 83
SWIDTH 594 0
DWIDTH 12 0
BBX 10 16 1 0
BITMAP
1F00
7180
6080
C080
E000
6000
7800
3E00
0F80
03C0
01C0
C0C0
C0C0
C0C0
E180
3E00
ENDCHAR
STARTCHAR T
ENCODING 84
SWIDTH 692 0
DWIDTH 14 0
BBX 13 16 0 0
BITMAP
7FF8
4318
4308
C308
C308
C308
0300
0300
0300
0300
0300
0300
0300
0300
0300
1FE0
ENDCHAR
STARTCHAR U
ENCODING 85
SWIDTH 740 0
DWIDTH 15 0
BBX 15 16 0 0
BITMAP
FC3E
3008
3008
3008
3008
3008
3008
3008
3008
3008
3018
3018
3818
1810
1C60
07C0
ENDCHAR
STARTCHAR V
ENCODING 86
SWIDTH 670 0
DWIDTH 13 0
BBX 14 16 0 0
BITMAP
F87C
6018
7010
3030
3030
3820
1860
1860
1C40
0CC0
0CC0
0E80
0680
0780
0700
0300
ENDCHAR
STARTCHAR W
ENCODING 87
SWIDTH 1000 0
DWIDTH 20 0
BBX 20 16 0 0
BITMAP
F9F8F0
606020
606060
307040
307040
307040
38F8C0
189880
189880
189880
0D8D80
0D0D00
0D0D00
0D0D00
070600
060600
ENDCHAR
STARTCHAR X
ENCODING 88
SWIDTH 712 0
DWIDTH 14 0
BBX 14 16 0 0
BITMAP
FC7C
3810
1830
1C20
0C40
0EC0
0680
0300
0380
0580
04C0
08E0
1860
1070
3038
F8FC
ENDCHAR
STARTCHAR Y
ENCODING 89
SWIDTH 644 0
DWIDTH 13 0
BBX 13 16 0 0
BITMAP
F878
6030
3020
3060
1840
18C0
0C80
0D80
0700
0700
0700
0700
0700
0700
0700
1FC0
ENDCHAR
STARTCHAR Z
ENCODING 90
SWIDTH 654 0
DWIDTH 13 0
BBX 11 16 1 0
BITMAP
7FE0
60E0
40C0
41C0
0380
0300
0700
0E00
0C00
1C00
1800
3820
7020
6060
C060
FFE0
ENDCHAR
STARTCHAR bracketleft
ENCODING 91
SWIDTH 428 0
DWIDTH 9 0
BBX 5 19 2 -2
BITMAP
F8
C0
C0
C0
C0
C0
C0
C0
C0
C0
C0
C0
C0
C0
C0
C0
C0
C0
F8
ENDCHAR
STARTCHAR backslash
ENCODING 92
SWIDTH 431 0
DWIDTH 9 0
BBX 7 20 1 -4
BITMAP
80
C0
C0
40
60
60
60
20
30
30
30
10
18
18
08
0C
0C
0C
04
06
ENDCHAR
STARTCHAR bracketright
ENCODING 93
SWIDTH 428 0
DWIDTH 9 0
BBX 5 19 2 -2
BITMAP
F0
18
18
18
18
18
18
18
18
18
18
18
18
18
18
18
18
18
F0
ENDCHAR
STARTCHAR asciicircum
ENCODING 94
SWIDTH 666 0
DWIDTH 13 0
BBX 10 13 2 3
BITMAP
0C00
1C00
1C00
1600
3600
3200
2300
6300
6100
4100
C180
C180
C0C0
ENDCHAR
STARTCHAR underscore
ENCODING 95
SWIDTH 835 0
DWIDTH 17 0
BBX 17 1 0 -4
BITMAP
FFFF80
ENDCHAR
STARTCHAR grave
ENCODING 96
SWIDTH 333 0
DWIDTH 7 0
BBX 5 5 0 13
BITMAP
40
C0
60
30
18
ENDCHAR
STARTCHAR a
ENCODING 97
SWIDTH 561 0
DWIDTH 11 0
BBX 10 12 1 0
BITMAP
3E00
E300
0300
0180
0180
1F80
7180
E180
C180
C180
E780
79C0
ENDCHAR
STARTCHAR b
ENCODING 98
SWIDTH 607 0
DWIDTH 12 0
BBX 11 17 0 0
BITMAP
F000
3000
3000
3000
3000
3780
39C0
30E0
3060
3060
3060
3060
3060
3060
30C0
3180
3F00
ENDCHAR
STARTCHAR c
ENCODING 99
SWIDTH 513 0
DWIDTH 10 0
BBX 8 12 1 0
BITMAP
1F
73
61
C1
C0
C0
C0
C0
C0
E0
71
3E
ENDCHAR
STARTCHAR d
ENCODING 100
SWIDTH 621 0
DWIDTH 12 0
BBX 11 17 1 0
BITMAP
07C0
01C0
01C0
01C0
01C0
1FC0
31C0
61C0
C1C0
C1C0
C1C0
C1C0
C1C0
C1C0
E1C0
73C0
3CE0
ENDCHAR
STARTCHAR e
ENCODING 101
SWIDTH 544 0
DWIDTH 11 0
BBX 9 12 1 0
BITMAP
1E00
6300
6180
C180
C180
FF80
C000
C000
C000
6000
7180
3E00
ENDCHAR
STARTCHAR f
ENCODING 102
SWIDTH 400 0
DWIDTH 8 0
BBX 7 17 1 0
BITMAP
0E
1E
30
30
70
FC
70
70
70
70
70
70
70
70
70
70
FC
ENDCHAR
STARTCHAR g
ENCODING 103
SWIDTH 607 0
DWIDTH 12 0
BBX 11 17 1 -5
BITMAP
3E60
63E0
E180
C180
C180
6380
3E00
6000
4000
4000
6000
7FC0
40E0
C060
C0C0
E1C0
7F00
ENDCHAR
STARTCHAR h
ENCODING 104
SWIDTH 659 0
DWIDTH 13 0
BBX 13 17 0 0
BITMAP
F000
3000
3000
3000
3000
33C0
3CE0
3060
3060
3060
3060
3060
3060
3060
3060
3060
78F8
ENDCHAR
STARTCHAR i
ENCODING 105
SWIDTH 333 0
DWIDTH 7 0
BBX 5 17 1 0
BITMAP
70
70
60
00
00
F0
F0
70
70
70
70
70
70
70
70
70
F8
ENDCHAR
STARTCHAR j
ENCODING 106
SWIDTH 317 0
DWIDTH 6 0
BBX 5 22 0 -5
BITMAP
38
38
30
00
00
70
70
30
30
30
30
30
30
30
30
30
30
30
30
30
70
E0
ENDCHAR
STARTCHAR k
ENCODING 107
SWIDTH 600 0
DWIDTH 12 0
BBX 12 18 0 0
BITMAP
1000
F000
3000
3000
3000
3000
31F0
3040
3080
3100
3200
3700
3B80
3180
30C0
30C0
3060
78F0
ENDCHAR
STARTCHAR l
ENCODING 108
SWIDTH 333 0
DWIDTH 7 0
BBX 5 17 1 0
BITMAP
E0
60
60
60
60
60
60
60
60
60
60
60
60
60
60
60
F8
ENDCHAR
STARTCHAR m
ENCODING 109
SWIDTH 995 0
DWIDTH 20 0
BBX 18 12 1 0
BITMAP
E79F00
79E300
60C180
60C180
60C180
60C180
60C180
60C180
60C180
60C180
60C180
F9F3C0
ENDCHAR
STARTCHAR n
ENCODING 110
SWIDTH 664 0
DWIDTH 13 0
BBX 12 12 1 0
BITMAP
E780
79C0
60C0
60C0
60C0
60C0
60C0
60C0
60C0
60C0
60C0
F9F0
ENDCHAR
STARTCHAR o
ENCODING 111
SWIDTH 608 0
DWIDTH 12 0
BBX 10 12 1 0
BITMAP
1F00
3380
61C0
C0C0
C0C0
C0C0
C0C0
C0C0
E0C0
6180
7380
1E00
ENDCHAR
STARTCHAR p
ENCODING 112
SWIDTH 628 0
DWIDTH 13 0
BBX 11 17 1 -5
BITMAP
EF00
F1C0
60C0
60C0
60E0
60E0
60E0
60E0
60C0
60C0
7380
7E00
6000
6000
6000
6000
F800
ENDCHAR
STARTCHAR q
ENCODING 113
SWIDTH 609 0
DWIDTH 12 0
BBX 11 17 1 -5
BITMAP
1FC0
31C0
61C0
C1C0
C1C0
C1C0
C1C0
C1C0
C1C0
E1C0
73C0
3CC0
01C0
01C0
01C0
01C0
07E0
ENDCHAR
STARTCHAR r
ENCODING 114
SWIDTH 458 0
DWIDTH 9 0
BBX 8 12 1 0
BITMAP
E7
EF
78
70
70
70
70
70
70
70
70
FC
ENDCHAR
STARTCHAR s
ENCODING 115
SWIDTH 505 0
DWIDTH 10 0
BBX 8 12 1 0
BITMAP
3E
63
C3
C0
E0
7C
1E
07
83
C3
C7
7C
ENDCHAR
STARTCHAR t
ENCODING 116
SWIDTH 407 0
DWIDTH 8 0
BBX 7 15 1 0
BITMAP
20
20
60
FE
60
60
60
60
60
60
60
60
60
62
3C
ENDCHAR
STARTCHAR u
ENCODING 117
SWIDTH 632 0
DWIDTH 13 0
BBX 11 12 1 0
BITMAP
E3C0
E1C0
60C0
60C0
60C0
60C0
60C0
60C0
60C0
60C0
73C0
3CE0
ENDCHAR
STARTCHAR v
ENCODING 118
SWIDTH 568 0
DWIDTH 11 0
BBX 12 12 0 0
BITMAP
F9F0
6040
70C0
30C0
3080
3980
1980
1900
0D00
0E00
0E00
0600
ENDCHAR
STARTCHAR w
ENCODING 119
SWIDTH 839 0
DWIDTH 17 0
BBX 17 12 0 0
BITMAP
F8C780
61C300
614300
316200
316200
336600
326400
1A3400
1A3400
1E3C00
0C1800
0C1800
ENDCHAR
STARTCHAR x
ENCODING 120
SWIDTH 595 0
DWIDTH 12 0
BBX 12 12 0 0
BITMAP
F9F0
3040
38C0
1980
0D00
0E00
0700
0B00
1980
31C0
20C0
F9F0
ENDCHAR
STARTCHAR y
ENCODING 121
SWIDTH 572 0
DWIDTH 11 0
BBX 11 17 0 -5
BITMAP
F9E0
6040
70C0
30C0
3080
3080
1980
1900
1900
0F00
0F00
0E00
0600
0400
0C00
7800
7000
ENDCHAR
STARTCHAR z
ENCODING 122
SWIDTH 554 0
DWIDTH 11 0
BBX 9 12 1 0
BITMAP
FF80
C180
C300
0600
0E00
0C00
1800
3800
7080
6080
C180
FF80
ENDCHAR
STARTCHAR braceleft
ENCODING 123
SWIDTH 508 0
DWIDTH 10 0
BBX 8 19 1 -2
BITMAP
1F
38
30
30
30
30
18
18
10
E0
30
18
18
10
30
30
30
30
1F
ENDCHAR
STARTCHAR bar
ENCODING 124
SWIDTH 422 0
DWIDTH 8 0
BBX 2 20 3 -2
BITMAP
C0
C0
C0
C0
C0
C0
C0
C0
C0
C0
C0
C0
C0
C0
C0
C0
C0
C0
C0
C0
ENDCHAR
STARTCHAR braceright
ENCODING 125
SWIDTH 508 0
DWIDTH 10 0
BBX 7 19 2 -2
BITMAP
F0
38
18
18
18
18
10
10
18
06
18
10
10
18
18
18
18
18
F0
ENDCHAR
STARTCHAR asciitilde
ENCODING 126
SWIDTH 692 0
DWIDTH 14 0
BBX 10 3 2 5
BITMAP
3880
4CC0
8780
ENDCHAR
ENDFONT
